<svg width="535" height="460" viewBox="0 0 535 460" fill="none" xmlns="http://www.w3.org/2000/svg">
<path fill-rule="evenodd" clip-rule="evenodd" d="M137.333 16.6667V8.66672V0.666718H264H390.667V8.66672V16.6667H264H137.333ZM491.467 80.4001C489.867 71.6001 494.933 62.2668 503.333 58.5334C512 54.6668 525.733 57.7334 530.533 64.5334C542 80.6668 526.4 100.667 506.533 95.3334C499.6 93.4668 492.667 86.5334 491.467 80.4001ZM-3.05176e-05 155.2V235.333H18.6666H37.3333V207.333V179.333H47.0666H56.6666L69.2 203.733C76.1333 217.067 82.9333 229.6 84.2666 231.6L86.8 235.333H106.667C117.6 235.333 126.8 234.933 127.067 234.267C127.467 233.733 119.867 219.6 110.267 202.667L92.9333 172.133L96.1333 170.133C103.867 165.333 114.267 153.067 116.8 145.867C120.267 136.133 120.267 113.067 116.933 105.333C110.933 91.7334 102.267 84.1334 86.6666 79.0667C78.8 76.4001 74.5333 76.1334 39.0666 75.6001L-3.05176e-05 75.0667V155.2ZM68.6666 107.467C77.0666 109.6 81.6 114.933 82.4 123.733C83.2 133.467 79.4666 140.8 71.6 144.933C67.0666 147.333 63.2 148 51.7333 148.4L37.3333 148.933V127.467V106H50.1333C57.0666 106 65.4666 106.667 68.6666 107.467ZM139.733 182.533C135.6 149.467 153.467 120 182.533 111.867C190.667 109.733 205.733 109.6 214 111.867C241.333 119.067 257.6 142.133 257.6 173.333C257.733 196 249.067 214.933 233.733 226C195.2 253.6 145.733 230.667 139.733 182.533ZM219.067 174C219.067 159.867 217.067 152.4 211.467 146.4C207.867 142.4 206.133 141.6 200.533 141.2C196.933 140.933 192.8 141.2 191.2 141.867C187.2 143.6 181.867 150.4 179.867 156.267C177.6 162.933 177.6 184 179.867 190.667C184.133 203.467 193.333 209.333 204 206.133C214 203.2 219.067 192.267 219.067 174ZM342 111.867C334.667 114.133 331.733 115.867 323.467 122.667L316.267 128.533L315.333 122.933C315.228 122.267 315.133 121.644 315.044 121.061C314.5 117.48 314.187 115.421 313 114.238C311.392 112.636 308.181 112.644 300.62 112.662H300.619H300.618H300.616H300.615H300.613H300.612H300.61H300.608H300.606H300.604H300.602H300.6H300.597H300.595H300.592H300.589H300.586H300.583H300.579H300.576H300.572H300.568H300.563H300.559C299.716 112.664 298.82 112.667 297.867 112.667H282.667L282.933 173.6L283.333 234.667L301.733 235.067L320 235.467V194.133V152.933L324.933 149.2C335.867 140.8 347.067 140.8 351.6 149.067C353.733 152.8 354 158.267 354.4 194.267L354.933 235.333H373.467H392V194.133V152.933L396.933 149.2C408 140.8 419.2 140.8 423.6 149.067C425.6 152.8 426 158.8 426.4 194.4L426.933 235.467L445.2 235.067L463.333 234.667L463.733 194C464 168.533 463.6 150.133 462.667 144.667C459.867 128.8 454.133 119.333 443.333 113.6C439.067 111.333 435.733 110.667 426.667 110.667C413.333 110.667 406.933 113.2 394.933 123.467L387.467 129.867L384.4 124.8C377.067 112.533 358.267 106.8 342 111.867ZM494.667 235.467V174V112.667H513.333H532L531.733 173.6L531.333 234.667L513.067 235.067L494.667 235.467ZM336.933 282.933C336.533 283.6 335.867 288 335.333 292.933L334.4 301.867L331.2 299.867C324.4 295.333 315.6 301.6 316.267 310.533C316.8 317.733 322.133 321.867 327.6 319.467C330.133 318.267 331.467 318.267 331.733 319.2C332.667 321.867 335.867 320.8 336.667 317.6C336.933 316 337.867 308.667 338.667 301.333C339.467 294 340.4 286.667 340.667 284.933C341.2 282.933 340.8 282 339.467 282C338.4 282 337.2 282.4 336.933 282.933ZM331.733 303.6C334.267 306.133 333.6 312 330.667 314.667C326.667 318.267 320.8 316 320.267 310.8C319.467 304.133 327.333 299.2 331.733 303.6ZM349.333 294C349.333 289.6 351.333 284.667 353.867 283.067C354.667 282.533 356.8 282 358.4 282C362.267 282 361.6 285.2 357.733 285.733C354.8 286.133 353.333 289.467 353.333 295.6C353.333 298.4 354 299.333 356 299.333C357.467 299.333 358.667 300.267 358.667 301.333C358.667 302.533 357.467 303.333 355.467 303.333C352.4 303.333 352.133 304 351.333 312C350.533 318.4 349.867 320.667 348.267 320.667C346.667 320.667 346.4 319.2 347.2 312C347.733 306.4 347.6 303.333 346.667 303.333C344.533 303.333 345.067 299.733 347.333 298.8C348.533 298.4 349.333 296.4 349.333 294ZM392.133 296.933C391.2 305.2 390.133 314 389.733 316.267C389.2 319.733 389.467 320.667 391.067 320.667C393.333 320.667 393.6 319.467 396 300.8C397.733 285.867 397.733 282 395.6 282C394.267 282 393.333 286.267 392.133 296.933ZM402.667 316.533C402.667 312 405.067 290.267 406.133 284.933C406.4 283.333 407.6 282 408.667 282C410.133 282 410.4 283.2 409.867 287.6C409.467 290.8 408.4 299.333 407.6 306.533C406.667 314.667 405.333 320 404.267 320.4C403.2 320.667 402.667 319.467 402.667 316.533ZM96.8 287.6C95.8667 292 93.3334 314.4 93.3334 317.733C93.3334 319.333 94.1334 320.667 95.2 320.667C96.4 320.667 97.3334 318.267 97.8667 314C98.6667 308 99.0667 307.333 102 307.333C104.667 307.333 106 308.8 108.667 314C110.533 317.6 112.933 320.667 114 320.667C116.667 320.667 116.533 319.2 113.067 311.867C110.8 307.2 110.4 305.467 111.733 305.067C113.867 304.267 117.333 297.6 117.333 294C117.333 292.533 115.867 289.733 114 288C111.467 285.333 109.467 284.667 104.133 284.667C98.2667 284.667 97.3334 285.067 96.8 287.6ZM111.733 294.4C112.4 299.467 109.867 302 104.533 302C102.494 302 101.372 302 100.755 301.442C100 300.759 100 299.241 100 295.867V289.867L105.733 290.267C110.8 290.667 111.333 291.067 111.733 294.4ZM235.333 302.667C236.4 293.867 237.333 286.133 237.333 285.333C237.333 283.6 239.867 287.467 245.867 298.267C248.667 303.333 251.333 307.333 251.867 307.333C252.4 307.333 256.667 302.533 261.467 296.8C270.4 285.733 272.8 283.867 271.6 288.933C271.2 290.667 270.133 298.4 269.2 306.267C268 317.333 267.2 320.667 265.6 320.667C264 320.667 263.867 318.8 264.667 308.933L265.6 297.333L258.267 306.4L250.8 315.333L245.6 306.533L240.267 297.867L239.467 304.267C237.467 319.2 237.067 320.667 235.2 320.667C235.135 320.667 235.071 320.668 235.009 320.669C234.981 320.67 234.953 320.671 234.926 320.671L234.822 320.675C234.46 320.687 234.172 320.696 233.96 320.574C233.145 320.106 233.448 317.695 234.913 306.025L234.913 306.024L234.913 306.024L234.918 305.984C235.047 304.952 235.186 303.848 235.333 302.667ZM441.867 289.333C440.933 294.533 442.133 299.2 443.867 297.2C444.533 296.533 445.333 293.467 445.6 290.267C446.133 283.333 443.2 282.4 441.867 289.333ZM449.2 298C447.867 298 447.6 290 448.8 286.8C450.267 283.067 452 284.533 452 289.2C452 294.533 450.933 298 449.2 298ZM82.6666 288.267C82.6666 290 83.3333 291.333 84 291.333C85.7333 291.333 85.7333 289.867 84 287.333C82.9333 285.733 82.6666 285.867 82.6666 288.267ZM89.2 291.333C88.5333 291.333 88 290.133 88 288.667C88 287.2 88.2667 286 88.5333 286C88.8 286 89.3333 287.2 89.7333 288.667C90.1333 290.133 89.8667 291.333 89.2 291.333ZM280.533 291.467C279.2 293.733 282.267 296.267 284.133 294.4C285.733 292.8 284.667 290 282.667 290C282 290 281.067 290.667 280.533 291.467ZM131.6 320.133C120.267 318 119.6 302.933 130.667 298.933C131.733 298.533 133.467 298.4 134.4 298.8C135.467 299.067 136.8 299.333 137.467 299.333C138.133 299.333 139.867 300.533 141.333 302C145.333 306 144.8 312.133 140 316.933C136.533 320.267 135.2 320.8 131.6 320.133ZM137.867 313.733C140.533 309.867 140.533 306.8 137.867 304.133C135.067 301.333 131.6 301.467 128.933 304.4C126.133 307.467 126 311.867 128.8 314.533C131.733 317.467 135.467 317.2 137.867 313.733ZM157.333 298.933C152.533 300.667 149.333 305.2 149.333 310.133C149.333 317.733 155.6 322.4 161.6 319.2C163.733 318 164.667 318 165.067 319.2C166.133 322.4 169.2 320.533 169.867 316.267C172.133 301.467 172.133 299.333 170.133 299.333C168.933 299.333 168 300 168 300.667C168 301.467 166.267 301.2 164 300L163.999 300L163.998 299.999C161.865 298.933 160 298 159.733 298.133C159.467 298.133 158.4 298.533 157.333 298.933ZM164.133 303.333C167.467 305.2 167.467 311.6 164 314.667C157.6 320.4 149.6 310.933 155.467 304.533C158 301.733 160.267 301.333 164.133 303.333ZM178.8 311.733C179.333 307.467 179.867 302.933 179.867 301.6C180 298.8 184 298.533 184 301.333C184 303.2 184.4 303.067 187.333 301.2C190.8 298.933 197.333 299.467 197.333 302C197.333 302.8 198.8 302.4 200.667 301.2C202.8 299.867 205.2 299.333 207.333 299.867C210.133 300.533 210.667 301.467 210.667 305.733C210.667 314.267 209.067 320.667 207.067 320.667C205.6 320.667 205.467 318.933 206.133 312C206.933 304.133 206.8 303.333 204.533 303.333C203.067 303.333 201.333 303.867 200.4 304.4C198.267 305.733 196 312 196 316.8C196 319.467 195.333 320.667 193.867 320.667C192.133 320.667 191.867 319.2 192.267 312.267C192.667 304.667 192.4 304 189.733 303.6C186.133 303.067 182.667 307.867 182.667 313.333C182.667 318 180.8 321.333 179.067 320.267C178.4 319.867 178.267 316.133 178.8 311.733ZM278.667 302.933C278.667 305.067 278.267 309.867 277.867 313.6C277.067 319.333 277.333 320.667 278.933 320.667C280.4 320.667 281.2 318 282.133 310C283.333 300.133 283.2 299.333 281.067 299.333C279.333 299.333 278.667 300.4 278.667 302.933ZM290 310.933C290.533 305.733 291.2 300.933 291.6 300.267C292.4 298.8 294.4 299.067 294.933 300.8C295.333 302 296.133 302 298.267 300.8C302.133 298.8 306 298.933 308 301.333C310.267 304.133 308.4 320.667 305.733 320.667C304.133 320.667 303.867 319.067 304.267 312.4C304.667 305.2 304.4 304 302.267 303.6C298.267 302.8 294.933 307.067 294 314.133C293.333 318.667 292.533 320.667 291.067 320.667C289.333 320.667 289.2 319.2 290 310.933ZM364.8 304.267C363.333 313.733 363.867 317.867 366.667 319.333C368.8 320.4 370.4 320.4 373.333 318.8C376.8 317.2 377.333 317.2 377.333 318.8C377.333 319.867 378.133 320.667 379.2 320.667C380.533 320.667 381.333 318.4 382 312.933C382.4 308.8 383.067 304 383.467 302.267C384 299.733 383.6 299.2 381.733 299.6C380 299.867 379.2 301.733 378.533 306.533C377.867 313.2 374.667 317.2 370.667 316.267C369.067 316 368.8 314.133 369.067 307.6C369.333 301.2 369.067 299.333 367.6 299.333C366.4 299.333 365.333 301.333 364.8 304.267ZM417.867 311.2C416.133 306.533 414.667 302.133 414.667 301.6C414.667 300.933 415.733 300.667 416.933 300.933C418.4 301.2 419.867 303.733 421.067 307.733C423.2 315.067 424.667 314.8 428.667 306C430 303.067 431.867 300.667 432.933 300.667C433.867 300.667 434.667 301.067 434.667 301.467C434.667 303.733 419.067 330 417.733 330C415.333 330 415.6 328.667 418.533 323.867C420.933 319.867 420.933 319.733 417.867 311.2ZM310 370.933C308.4 383.2 307.867 385.067 306.267 383.467C305.467 382.667 302.8 382 300.4 382C290.4 382 285.333 394.667 292.933 400.667C296.533 403.467 299.067 403.6 304.533 401.333C306.4 400.533 306.8 400.667 306.133 401.733C305.6 402.8 306.133 403.333 307.733 403.333C309.867 403.333 310.4 401.6 311.867 388.267C312.8 380.133 313.867 371.333 314.267 368.933C314.8 365.6 314.533 364.667 312.933 364.667C311.467 364.667 310.533 366.533 310 370.933ZM306.133 388.133C308 390.4 307.067 396 304.533 398C302.133 400 295.867 399.2 294.267 396.533C292.267 393.467 294.267 387.333 297.733 386.133C301.067 384.8 304 385.6 306.133 388.133ZM452.267 403.333C450.133 403.333 450.133 402.933 453.6 376.267C454.667 367.467 455.467 364.667 457.067 364.667C458.667 364.667 458.8 365.867 458.267 370.933C457.867 374.533 456.8 383.2 455.867 390.267C454.667 400.4 453.867 403.333 452.267 403.333ZM63.4666 371.467C62.1333 378.133 62.5333 380.667 64.6666 380.667C66 380.667 66.6666 379.333 66.6666 376.133C66.6666 373.6 67.0666 370.667 67.4666 369.467C68 368.133 67.6 367.333 66.2666 367.333C65.2 367.333 64 369.067 63.4666 371.467ZM71.0667 380.4C69.2 380.933 68.9334 378 70.1334 371.467C70.6667 369.2 71.7334 367.333 72.5334 367.333C74.6667 367.333 73.2 379.6 71.0667 380.4ZM90.2667 370.4C88.8 372.8 75.7333 397.467 73.6 402.267C73.3333 402.933 74 403.333 75.2 403.333C76.4 403.333 78.5333 400.933 80 397.867C82.6667 392.667 82.9333 392.533 89.0667 392.933C94.9333 393.333 95.4667 393.6 96.8 398C98.1333 402.133 102.667 405.467 102.667 402.4C102.667 401.067 93.3333 368.133 92.6667 367.6C92.5333 367.467 91.4667 368.667 90.2667 370.4ZM93.0667 383.333C93.7333 386.133 94 388.933 93.6 389.333C92.4 390.533 85.3333 390 85.3333 388.667C85.3333 386.667 89.7333 378 90.8 378C91.2 378 92.2667 380.4 93.0667 383.333ZM110.667 400.933C110.667 398.4 112.933 379.2 114.133 371.6C114.8 367.467 115.067 367.333 120.8 367.333C133.6 367.333 140 372.933 140 384C140 396.8 132.533 403.333 118 403.333C111.733 403.333 110.667 402.933 110.667 400.933ZM132.133 394.133C137.333 388.933 137.6 380.8 132.667 376C130.267 373.6 128 372.667 124 372.667C121.067 372.667 118.533 372.8 118.533 372.933C118.4 373.2 117.6 378.933 116.8 385.6L115.2 398H121.733C127.067 398 128.8 397.333 132.133 394.133ZM150.667 368.4C150.667 368.933 149.733 376.667 148.667 385.333C148.499 386.692 148.343 387.948 148.199 389.11L148.195 389.143C146.798 400.41 146.503 402.791 147.309 403.254C147.526 403.378 147.821 403.365 148.195 403.347C148.34 403.341 148.498 403.333 148.667 403.333C150.667 403.333 151.733 400.4 152.267 392.667L152.667 388L161.867 387.6L171.067 387.2L170.267 395.333C169.467 402.667 169.6 403.467 171.733 403.067C173.6 402.667 174.267 400.267 175.6 390C177.733 372.267 177.733 367.333 175.467 367.333C174.267 367.333 173.333 369.733 172.667 374.667L171.867 382H162.667H153.467L154.267 374.667C154.933 368.4 154.667 367.333 152.8 367.333C151.6 367.333 150.667 367.867 150.667 368.4ZM184.533 400.933C184.933 399.733 185.867 391.6 186.8 382.933L188.4 367.333H194.933C207.867 367.333 214.667 373.2 214.667 384.4C214.667 395.6 205.2 403.333 191.6 403.333C184.8 403.333 183.867 403.067 184.533 400.933ZM208.8 378.267C207.733 376.133 205.733 374 204.667 373.467C203.467 373.067 200.133 372.667 197.333 372.667H192.4L191.467 379.6C191.14 381.967 190.764 385.034 190.429 387.76C190.217 389.487 190.022 391.077 189.867 392.267L189.067 398H195.733C201.067 398 202.933 397.333 205.733 394.533C210.267 390 211.467 383.467 208.8 378.267ZM335.6 368.267C333.2 370.533 334.933 372.667 339.333 372.667C341.867 372.667 344 372.933 344 373.2C344 374.267 341.333 394.667 340.533 398.933C340 402.667 340.267 403.333 342.4 403.333C344.667 403.333 345.067 401.467 346.667 388L348.267 372.667H352.667C356.4 372.667 358.667 370.933 358.667 367.867C358.667 366.933 336.533 367.333 335.6 368.267ZM466.8 374.4C465.067 376.133 464.8 374.267 466.267 370.4C467.2 368.133 467.333 368.133 467.733 370.533C468 371.867 467.6 373.6 466.8 374.4ZM471.2 370.8C470.667 372.133 470 373.733 469.733 374.267C469.467 374.933 469.733 375.333 470.533 375.333C472 375.333 474 370.133 472.8 369.067C472.4 368.667 471.6 369.467 471.2 370.8ZM234.667 397.2C233.067 392.933 234 389.067 237.733 384.933C240.8 381.733 247.733 380.933 250.4 383.6C251.733 384.933 252.4 384.933 253.2 383.467C254.667 381.067 257.6 382.933 256.8 385.733C256.533 387.067 255.867 391.467 255.333 395.6C254.8 400.8 253.867 403.333 252.667 403.333C251.733 403.333 250.667 402.667 250.4 401.867C250.133 400.933 248.8 400.933 246.267 402.133C241.6 404.267 236.533 402.133 234.667 397.2ZM244.667 399.333C250.4 399.333 254.133 391.333 250.4 387.6C249.467 386.667 247.2 386 245.333 386C243.467 386 241.2 386.667 240.267 387.6C239.333 388.533 238.667 390.8 238.667 392.667C238.667 396.933 240.933 399.333 244.667 399.333ZM264.8 387.333C264.6 388.8 264.3 390.734 264 392.667L264 392.669L263.999 392.671C263.7 394.603 263.4 396.534 263.2 398C262.533 402.267 262.8 403.333 264.533 403.333C265.867 403.333 266.8 401.6 267.333 398.267C268.8 390.133 269.333 388.8 272.133 387.2C277.467 384.4 279.067 386.533 278.133 395.333C277.333 401.733 277.6 403.333 279.067 403.333C281.067 403.333 282.667 397.067 282.667 389.067C282.667 383.333 278.8 381.067 273.333 383.733C270.133 385.467 269.333 385.467 268.8 383.867C267.467 380.4 265.6 382 264.8 387.333ZM356.533 393.867C356.933 388.667 357.733 383.867 358.133 383.2C359.333 381.2 361.333 381.867 361.333 384.133C361.333 386 361.6 386 364.267 384.133C368 381.467 369.333 381.467 369.333 384C369.333 385.067 368.667 386 368 386C367.2 386 365.067 387.467 363.333 389.333C360.933 391.733 360 394 360 398C360 402 359.467 403.333 357.867 403.333C355.867 403.333 355.733 402.133 356.533 393.867ZM376.4 384.933C371.6 390 371.867 398.267 376.8 401.467C379.467 403.333 381.067 403.467 384.8 402.267C387.333 401.467 389.333 401.467 389.333 402.133C389.333 402.8 390.267 403.333 391.333 403.333C393.2 403.333 393.6 401.867 395.2 389.067C396 383.333 394 380 391.867 383.467C391.067 384.933 390.4 384.933 389.067 383.6C386.4 380.933 379.467 381.733 376.4 384.933ZM389.733 388.8C390.4 390 390.667 392.533 390.133 394.4C389.2 398.4 383.6 400.533 380.133 398.4C377.467 396.667 376.667 390.4 378.8 387.867C380.933 385.333 388 386 389.733 388.8ZM409.467 402C408.8 402 406.4 396.4 401.867 384.133C401.2 382.267 401.467 381.867 403.333 382.133C404.8 382.533 406.667 384.933 407.867 388.267C408.933 391.467 410.267 394 410.8 394C411.333 394 413.2 391.467 414.933 388.4C417.867 383.067 421.333 380.267 421.333 383.2C421.333 384.933 410.667 402 409.467 402ZM428.933 383.867C423.2 388.267 423.333 398.8 429.333 402C433.333 404.133 439.2 403.2 439.733 400.4C440 398.667 439.6 398.267 438.133 398.8C435.6 399.733 429.333 398.4 429.333 396.8C429.333 396.267 432.933 394.8 437.333 393.6C446 391.2 446.933 389.6 442.667 384.933C439.467 381.6 432.667 381.067 428.933 383.867ZM439.867 387.867C441.067 389.333 440.133 390 435.333 391.333C428.267 393.333 427.333 392.933 430.133 388.933C432.4 385.6 437.6 385.067 439.867 387.867ZM136 459.333V451.333V443.333H262.667H389.333V451.333V459.333H262.667H136Z" fill="black"/>
</svg>
